<svg width="77" height="70" viewBox="0 0 77 70" fill="none" xmlns="http://www.w3.org/2000/svg">
<g clip-path="url(#clip0_9_763)">
<path fill-rule="evenodd" clip-rule="evenodd" d="M21 63H49V70H21V63Z" fill="black"/>
<path fill-rule="evenodd" clip-rule="evenodd" d="M48 63.91H20C19.6 63.91 19.27 63.69 19.27 63.41C19.27 63.13 19.59 62.9 20 62.9H48C48.4 62.9 48.74 63.13 48.74 63.4C48.74 63.67 48.37 63.91 48 63.91Z" fill="black"/>
<path fill-rule="evenodd" clip-rule="evenodd" d="M20.2 70C20.0028 70.0001 19.8136 69.9224 19.6732 69.7839C19.5328 69.6454 19.4527 69.4572 19.45 69.26V58.09H15.34C13.6611 58.0874 12.0515 57.42 10.8634 56.2337C9.67529 55.0475 9.00531 53.439 9.00002 51.76V43.19H0.750022C0.55283 43.1901 0.363565 43.1124 0.223196 42.9739C0.0828279 42.8354 0.00265104 42.6472 2.18172e-05 42.45C-0.00308018 42.3425 0.0209954 42.2358 0.0700218 42.14L6.00002 28.88V26.06C6.01369 20.709 7.67116 15.4913 10.7481 11.1133C13.825 6.73532 18.1727 3.40843 23.2028 1.58297C28.2329 -0.242483 33.7025 -0.478351 38.871 0.907297C44.0396 2.29294 48.6576 5.23319 52.1 9.33004C52.1631 9.40523 52.2107 9.49221 52.2398 9.58594C52.269 9.67967 52.2792 9.77827 52.2699 9.87599C52.2606 9.9737 52.232 10.0686 52.1856 10.1551C52.1393 10.2417 52.0762 10.3181 52 10.38C51.8501 10.4871 51.6668 10.537 51.4833 10.5204C51.2999 10.5039 51.1284 10.4222 51 10.29C48.6915 7.54565 45.8131 5.33686 42.5648 3.81719C39.3165 2.29751 35.7762 1.5034 32.19 1.49004H31.89C25.4111 1.56598 19.2212 4.18369 14.6536 8.77932C10.086 13.3749 7.50629 19.5808 7.47002 26.06V29.06C7.47029 29.163 7.44989 29.2651 7.41002 29.36L1.90002 41.7H9.73002C9.9272 41.7027 10.1154 41.7828 10.2539 41.9232C10.3924 42.0636 10.47 42.2529 10.47 42.45V51.75C10.4713 52.3883 10.5983 53.02 10.8438 53.6091C11.0892 54.1983 11.4483 54.7333 11.9006 55.1837C12.3528 55.634 12.8893 55.9909 13.4794 56.2339C14.0696 56.4769 14.7018 56.6014 15.34 56.6H20.2C20.3972 56.6 20.5865 56.6777 20.7268 56.8162C20.8672 56.9547 20.9474 57.1429 20.95 57.34V68.51H47.88C47.5631 58.454 49.4257 48.4484 53.34 39.18C53.4156 38.9957 53.5613 38.849 53.7451 38.7721C53.9289 38.6952 54.1357 38.6945 54.32 38.77C54.5043 38.8456 54.6511 38.9913 54.728 39.1751C54.8049 39.3589 54.8056 39.5657 54.73 39.75C48.23 55.28 49.55 67.17 49.38 69.25C49.38 69.449 49.301 69.6397 49.1604 69.7804C49.0197 69.921 48.8289 70 48.63 70H20.2Z" fill="black"/>
<path fill-rule="evenodd" clip-rule="evenodd" d="M57.5 43.93C57.4961 44.0753 57.4635 44.2185 57.404 44.3511C57.3444 44.4838 57.2592 44.6033 57.1532 44.7028C57.0472 44.8023 56.9225 44.8798 56.7864 44.9308C56.6502 44.9818 56.5053 45.0053 56.36 45H45.64C45.3473 45.0081 45.0632 44.9002 44.8496 44.6998C44.6361 44.4993 44.5104 44.2227 44.5 43.93V39H57.5V43.93Z" fill="black" stroke="black"/>
<path d="M44 37.0001V38.5001H58V36.92V36.42C57.7768 33.7567 58.5659 31.1072 60.21 29.0001L60.47 28.7001C62.4176 26.4918 63.4854 23.6445 63.47 20.7001C63.3452 17.6067 62.0796 14.6691 59.9173 12.4535C57.755 10.238 54.849 8.90136 51.7596 8.70136C48.6703 8.50136 45.6162 9.45215 43.1863 11.3704C40.7564 13.2887 39.1226 16.0386 38.6 19.0901C38.3884 20.6785 38.497 22.2932 38.9195 23.8389C39.342 25.3847 40.0698 26.8301 41.06 28.0901L41.29 28.3701C42.2446 29.4021 42.9817 30.6157 43.4576 31.9385C43.9335 33.2614 44.1383 34.6664 44.06 36.0701V36.6901V37.0001H44ZM51 10.0001C53.8727 9.96526 56.6424 11.0691 58.7036 13.0704C60.7649 15.0717 61.95 17.8076 62 20.6801C61.9951 23.1282 61.1356 25.4979 59.57 27.3801L59.34 27.6501C58.2602 28.9366 57.4512 30.4278 56.9615 32.0344C56.4718 33.641 56.3114 35.33 56.49 37.0001H51.44V25.7301C51.4392 25.5961 51.4654 25.4633 51.5169 25.3396C51.5684 25.2159 51.6443 25.1038 51.74 25.0101L56.74 20.1801C56.8082 20.1114 56.8512 20.0217 56.8621 19.9255C56.873 19.8293 56.8511 19.7323 56.8 19.6501L56.74 19.5701C56.6998 19.5267 56.651 19.4922 56.5968 19.4686C56.5426 19.4449 56.4841 19.4328 56.425 19.4328C56.3659 19.4328 56.3074 19.4449 56.2532 19.4686C56.199 19.4922 56.1503 19.5267 56.11 19.5701L51.71 23.8401C51.524 24.0173 51.2769 24.1162 51.02 24.1162C50.7631 24.1162 50.516 24.0173 50.33 23.8401L45.93 19.5701C45.8898 19.5267 45.841 19.4922 45.7868 19.4686C45.7326 19.4449 45.6741 19.4328 45.615 19.4328C45.5559 19.4328 45.4974 19.4449 45.4432 19.4686C45.389 19.4922 45.3402 19.5267 45.3 19.5701C45.2258 19.6372 45.1788 19.7292 45.1677 19.8287C45.1567 19.9282 45.1824 20.0282 45.24 20.1101L45.3 20.1801L50.3 25.0101C50.3957 25.1038 50.4716 25.2159 50.5231 25.3396C50.5746 25.4633 50.6008 25.5961 50.6 25.7301V37.0001H45.5V36.7301C45.6556 35.1022 45.4827 33.4596 44.9914 31.8998C44.5001 30.3401 43.7005 28.8949 42.64 27.6501L42.42 27.3901C41.4843 26.2789 40.7918 24.9841 40.3871 23.589C39.9823 22.1939 39.8743 20.7294 40.07 19.2901C40.4614 16.6821 41.7841 14.3041 43.7936 12.5962C45.803 10.8883 48.363 9.96601 51 10.0001Z" fill="black"/>
<path fill-rule="evenodd" clip-rule="evenodd" d="M66.48 21.67H76C76.44 21.67 76.8 21.44 76.8 21.16C76.8 20.88 76.44 20.66 76 20.66H66.48C66.04 20.66 65.68 20.88 65.68 21.16C65.68 21.44 66.04 21.66 66.48 21.66V21.67ZM66.22 13.15L70.22 9.15002C70.3476 9.05084 70.433 8.90705 70.459 8.74753C70.4849 8.588 70.4496 8.42456 70.36 8.29002C70.16 8.09002 69.78 8.16002 69.5 8.44002L65.5 12.44C65.3704 12.5377 65.2835 12.6817 65.2574 12.8419C65.2313 13.0021 65.2681 13.1662 65.36 13.3C65.495 13.3909 65.6599 13.4261 65.8202 13.3981C65.9805 13.3702 66.1238 13.2813 66.22 13.15ZM66.22 29.15L70.22 33.15C70.3476 33.2492 70.433 33.393 70.459 33.5525C70.4849 33.712 70.4496 33.8755 70.36 34.01C70.16 34.21 69.78 34.14 69.5 33.86L65.5 29.86C65.4221 29.8228 65.3542 29.7674 65.3021 29.6985C65.25 29.6296 65.2151 29.5492 65.2005 29.4641C65.1859 29.3789 65.1919 29.2915 65.2181 29.2092C65.2443 29.1268 65.2898 29.052 65.3509 28.9909C65.412 28.9298 65.4868 28.8843 65.5692 28.8581C65.6515 28.8319 65.7389 28.8259 65.8241 28.8405C65.9092 28.8551 65.9896 28.89 66.0585 28.9421C66.1274 28.9942 66.1828 29.0621 66.22 29.14V29.15Z" fill="black"/>
</g>
<defs>
<clipPath id="clip0_9_763">
<rect width="76.84" height="70" fill="white"/>
</clipPath>
</defs>
</svg>
