<svg width="15" height="15" viewBox="0 0 15 15" fill="none" xmlns="http://www.w3.org/2000/svg">
<path fill-rule="evenodd" clip-rule="evenodd" d="M5 1.25C4.65482 1.25 4.375 1.52982 4.375 1.875V2.5H3.75C2.71447 2.5 1.875 3.33947 1.875 4.375V5.625V11.875C1.875 12.9105 2.71447 13.75 3.75 13.75H11.25C12.2855 13.75 13.125 12.9105 13.125 11.875V5.625V4.375C13.125 3.33947 12.2855 2.5 11.25 2.5H10.625V1.875C10.625 1.52982 10.3452 1.25 10 1.25C9.65482 1.25 9.375 1.52982 9.375 1.875V2.5H5.625V1.875C5.625 1.52982 5.34518 1.25 5 1.25ZM10 3.75H5H3.75C3.40482 3.75 3.125 4.02982 3.125 4.375V5H11.875V4.375C11.875 4.02982 11.5952 3.75 11.25 3.75H10ZM3.125 11.875V6.25L11.875 6.25V11.875C11.875 12.2202 11.5952 12.5 11.25 12.5H3.75C3.40482 12.5 3.125 12.2202 3.125 11.875Z" fill="#D9D9D9"/>
</svg>
