<svg width="44" height="67" viewBox="0 0 44 67" fill="none" xmlns="http://www.w3.org/2000/svg">
<g clip-path="url(#clip0_9_740)">
<path fill-rule="evenodd" clip-rule="evenodd" d="M19.1518 51.1402V58.4527L16.3855 60.4915L22.0433 65.8897L28.1253 53.4469L25.2337 54.1935V48.1635L19.1518 51.1402Z" fill="black"/>
<path fill-rule="evenodd" clip-rule="evenodd" d="M5.31073 45.9429C12.0577 49.6566 2.13964 38.2857 13.0216 20.1574C23.9035 2.02915 39.4312 6.37458 32.2987 2.13444C25.1662 -2.10571 14.8529 0.928435 5.31073 16.4916C-1.43626 27.537 -1.43626 42.2387 5.31073 45.9429Z" fill="black"/>
<path fill-rule="evenodd" clip-rule="evenodd" d="M10.0626 48.9386L10.2458 49.1204C12.0491 50.6335 14.3537 51.4281 16.7133 51.3506C17.0506 51.3506 17.3976 51.3506 17.7446 51.2836V58.0601L14.7566 59.7734C14.5971 59.8688 14.4821 60.0231 14.437 60.2026C14.3918 60.382 14.4201 60.5718 14.5157 60.7306C14.5558 60.7914 14.6045 60.8461 14.6602 60.8933L21.5422 66.818C21.6242 66.8856 21.7205 66.9341 21.824 66.9599C21.9274 66.9856 22.0353 66.9881 22.1398 66.9669C22.2443 66.9458 22.3427 66.9017 22.4278 66.8378C22.5128 66.774 22.5824 66.692 22.6313 66.5979L29.4651 52.815C29.5091 52.7312 29.5356 52.6394 29.5428 52.5452C29.5501 52.451 29.5381 52.3563 29.5075 52.2668C29.4768 52.1773 29.4282 52.0949 29.3646 52.0247C29.301 51.9544 29.2237 51.8976 29.1373 51.8579C29.0354 51.808 28.9233 51.7821 28.8096 51.7821C28.696 51.7821 28.5839 51.808 28.4819 51.8579L26.1976 53.1691V48.3834C36.0675 42.3726 44.0289 28.4366 43.9904 17.0849C43.9904 11.342 41.9663 7.03486 38.3325 4.93872H38.2747L32 1.32072C28.3373 -0.804141 23.5084 -0.363855 18.4193 2.565C18.2712 2.67099 18.1697 2.82929 18.1357 3.00734C18.1016 3.18539 18.1376 3.36963 18.2361 3.52214C18.3306 3.6609 18.4727 3.76075 18.6359 3.80302C18.7991 3.8453 18.9722 3.82711 19.1229 3.75186C23.7494 1.08143 28.0771 0.641144 31.2964 2.50757L33.2916 3.65614C30.277 3.78028 27.3443 4.6665 24.7711 6.23086C15.2289 11.6866 7.56626 24.3591 6.45783 35.2897C6.13012 38.7163 6.39036 42.9469 7.92289 46.0863L6.30361 45.1291C3.12289 43.2819 1.37831 39.3863 1.36867 34.1603C1.36867 26.1203 5.50361 16.4531 11.9711 9.49472C12.0557 9.43775 12.1266 9.36293 12.1787 9.2756C12.2308 9.18827 12.2628 9.09059 12.2725 8.98955C12.2821 8.8885 12.2692 8.78658 12.2346 8.69107C12.2 8.59556 12.1446 8.50881 12.0723 8.43704C12 8.36527 11.9127 8.31024 11.8165 8.27588C11.7203 8.24152 11.6177 8.22868 11.5159 8.23829C11.4142 8.24789 11.3158 8.2797 11.2279 8.33144C11.1399 8.38317 11.0646 8.45356 11.0072 8.53757L10.988 8.61414C4.27952 15.7927 0 25.8427 0 34.2081C0 39.951 2.0241 44.2773 5.63855 46.383L10.0723 48.9386H10.0626ZM27.2096 54.2699L21.8024 65.1813L16.3855 60.4913L18.8626 59.0747C18.9716 59.0134 19.0621 58.9243 19.1248 58.8166C19.1875 58.7089 19.2201 58.5865 19.2193 58.4621V51.14C21.1877 50.7856 23.0916 50.1403 24.8675 49.2257V54.4326C24.8675 54.6188 24.9413 54.7975 25.073 54.9301C25.2046 55.0626 25.3836 55.1383 25.5711 55.1409C25.6975 55.1397 25.8211 55.1032 25.9277 55.0356L27.2096 54.2699ZM42.6313 17.1231C42.6313 30.1881 31.0651 48.2303 18.3904 49.8383C14.6313 50.3264 11.3928 49.2544 9.50361 45.914C7.86506 42.9756 7.5759 38.7163 7.94217 35.3854C8.9253 24.8856 16.3181 12.7011 25.4458 7.456C29.2241 5.312 33.8506 4.05814 37.5904 6.16386H37.6482C40.8289 8.00157 42.5831 11.9067 42.5928 17.0944L42.6313 17.1231Z" fill="black"/>
<path fill-rule="evenodd" clip-rule="evenodd" d="M15.5855 4.43158C14.7758 5.04415 13.9855 5.69501 13.2337 6.34586C13.1622 6.40431 13.1029 6.47617 13.0594 6.55735C13.0158 6.63853 12.9888 6.72742 12.9799 6.81897C12.9709 6.91051 12.9802 7.00291 13.0072 7.09089C13.0342 7.17887 13.0784 7.2607 13.1373 7.33172C13.1961 7.40274 13.2685 7.46155 13.3503 7.50479C13.432 7.54804 13.5215 7.57487 13.6137 7.58376C13.7059 7.59264 13.7989 7.58341 13.8875 7.55659C13.9761 7.52977 14.0585 7.48588 14.1301 7.42744H14.1782C14.8814 6.76523 15.6181 6.13909 16.3855 5.55144C16.4615 5.50125 16.5269 5.43666 16.5777 5.36135C16.6286 5.28605 16.664 5.20151 16.6819 5.1126C16.6998 5.02368 16.6999 4.93213 16.6821 4.84318C16.6643 4.75424 16.629 4.66966 16.5782 4.59429C16.4745 4.44378 16.3157 4.3395 16.1356 4.30373C15.9555 4.26796 15.7684 4.30354 15.6144 4.40286L15.5855 4.43158Z" fill="black"/>
<path fill-rule="evenodd" clip-rule="evenodd" d="M27.0844 26.8C26.7287 26.6242 26.3322 26.5458 25.9358 26.5727C25.5394 26.5996 25.1573 26.7309 24.829 26.9531C24.7082 27.0438 24.5676 27.1049 24.4185 27.1315C24.2695 27.1581 24.1162 27.1495 23.9712 27.1063C23.865 27.0047 23.7837 26.8802 23.7336 26.7425C23.6834 26.6047 23.6658 26.4574 23.682 26.3119C23.7211 25.6807 23.9068 25.0672 24.2245 24.5192C24.5422 23.9712 24.9833 23.5037 25.5133 23.1533C25.6342 23.0626 25.7748 23.0015 25.9238 22.9749C26.0729 22.9483 26.2261 22.957 26.3712 23.0001C26.4787 23.1028 26.5608 23.2288 26.611 23.3684C26.6612 23.5079 26.6781 23.657 26.6603 23.8041C26.6603 23.9895 26.7345 24.1672 26.8664 24.2982C26.9984 24.4292 27.1773 24.5029 27.3639 24.5029C27.5506 24.5029 27.7295 24.4292 27.8615 24.2982C27.9934 24.1672 28.0676 23.9895 28.0676 23.8041C28.1003 23.4144 28.0283 23.023 27.859 22.6699C27.6896 22.3168 27.429 22.0146 27.1037 21.7941C26.7385 21.598 26.3194 21.5241 25.9085 21.5836V20.1861C25.9085 20.0008 25.8344 19.8231 25.7024 19.6921C25.5705 19.561 25.3915 19.4874 25.2049 19.4874C25.0183 19.4874 24.8393 19.561 24.7074 19.6921C24.5754 19.8231 24.5013 20.0008 24.5013 20.1861V22.1483C23.8589 22.6366 23.3306 23.2574 22.9529 23.9679C22.5752 24.6784 22.357 25.4617 22.3133 26.264C22.2816 26.6536 22.354 27.0447 22.5233 27.3976C22.6925 27.7505 22.9526 28.0529 23.2772 28.274C23.6355 28.4482 24.0339 28.525 24.4319 28.4964C24.8298 28.4678 25.2129 28.3349 25.5423 28.1113C25.662 28.0221 25.8009 27.9619 25.9482 27.9353C26.0954 27.9087 26.2468 27.9165 26.3904 27.9581C26.498 28.0608 26.5801 28.1868 26.6303 28.3264C26.6805 28.4659 26.6974 28.615 26.6796 28.7621C26.6398 29.3905 26.4537 30.0011 26.1359 30.5458C25.8181 31.0906 25.3774 31.5547 24.8483 31.9016C24.7286 31.9907 24.5896 32.051 24.4424 32.0776C24.2952 32.1041 24.1437 32.0963 24.0001 32.0547C23.8073 31.959 23.7109 31.6623 23.7109 31.2699C23.6906 31.0974 23.6073 30.9384 23.4767 30.823C23.3461 30.7075 23.1773 30.6438 23.0025 30.6438C22.8277 30.6438 22.6589 30.7075 22.5283 30.823C22.3977 30.9384 22.3144 31.0974 22.2941 31.2699C22.2631 31.658 22.3359 32.0475 22.5052 32.3987C22.6744 32.75 22.9341 33.0507 23.2579 33.2703C23.5535 33.429 23.8858 33.5082 24.2218 33.5C24.3085 33.5046 24.3953 33.5046 24.482 33.5V34.8879C24.482 35.0732 24.5561 35.2509 24.6881 35.3819C24.8201 35.513 24.999 35.5866 25.1856 35.5866C25.3722 35.5866 25.5512 35.513 25.6832 35.3819C25.8151 35.2509 25.8892 35.0732 25.8892 34.8879V32.9736C26.5418 32.4911 27.0783 31.8708 27.46 31.1574C27.8417 30.444 28.0591 29.6553 28.0965 28.8483C28.1272 28.4588 28.0543 28.0681 27.8852 27.7153C27.716 27.3626 27.4565 27.0601 27.1326 26.8383L27.0844 26.8Z" fill="black"/>
</g>
<defs>
<clipPath id="clip0_9_740">
<rect width="44" height="67" fill="white"/>
</clipPath>
</defs>
</svg>
