<svg width="68" height="70" viewBox="0 0 68 70" fill="none" xmlns="http://www.w3.org/2000/svg">
<g clip-path="url(#clip0_9_722)">
<path fill-rule="evenodd" clip-rule="evenodd" d="M21 63H49V70H21V63Z" fill="black"/>
<path fill-rule="evenodd" clip-rule="evenodd" d="M25 32H38.75C41.7281 32.6835 44.3366 34.4701 46.05 37C47.8727 34.3717 50.6634 32.5736 53.81 32H68V40H25V32Z" fill="black"/>
<path fill-rule="evenodd" clip-rule="evenodd" d="M48 63.91H20C19.6 63.91 19.27 63.69 19.27 63.41C19.27 63.13 19.59 62.9 20 62.9H48C48.4 62.9 48.74 63.13 48.74 63.4C48.74 63.67 48.37 63.91 48 63.91Z" fill="black"/>
<path fill-rule="evenodd" clip-rule="evenodd" d="M48.63 70H20.2C20.0028 70.0001 19.8136 69.9224 19.6732 69.7839C19.5328 69.6454 19.4527 69.4572 19.45 69.26V58.09H15.34C13.6611 58.0874 12.0515 57.42 10.8634 56.2337C9.67529 55.0475 9.00531 53.439 9.00002 51.76V43.19H0.750022C0.55283 43.1901 0.363565 43.1124 0.223196 42.9739C0.0828279 42.8354 0.00265104 42.6472 2.18172e-05 42.45C-0.00308018 42.3425 0.0209954 42.2358 0.0700218 42.14L6.00002 28.88V26.06C6.01369 20.709 7.67116 15.4913 10.7481 11.1133C13.825 6.73532 18.1727 3.40843 23.2028 1.58297C28.2329 -0.242483 33.7025 -0.478351 38.871 0.907297C44.0396 2.29294 48.6576 5.23319 52.1 9.33004C52.1631 9.40523 52.2107 9.49221 52.2398 9.58594C52.269 9.67967 52.2792 9.77827 52.2699 9.87599C52.2606 9.9737 52.232 10.0686 52.1856 10.1551C52.1393 10.2417 52.0762 10.3181 52 10.38C51.8501 10.4871 51.6668 10.537 51.4833 10.5204C51.2999 10.5039 51.1284 10.4222 51 10.29C48.6915 7.54565 45.8131 5.33686 42.5648 3.81719C39.3165 2.29751 35.7762 1.5034 32.19 1.49004H31.89C25.4111 1.56598 19.2212 4.18369 14.6536 8.77932C10.086 13.3749 7.50629 19.5808 7.47002 26.06V29.06C7.47029 29.163 7.44989 29.2651 7.41002 29.36L1.90002 41.7H9.73002C9.9272 41.7027 10.1154 41.7828 10.2539 41.9232C10.3924 42.0636 10.47 42.2529 10.47 42.45V51.75C10.4713 52.3883 10.5983 53.02 10.8438 53.6091C11.0892 54.1983 11.4483 54.7333 11.9006 55.1837C12.3528 55.634 12.8893 55.9909 13.4794 56.2339C14.0696 56.4769 14.7018 56.6014 15.34 56.6H20.2C20.3972 56.6 20.5865 56.6777 20.7268 56.8162C20.8672 56.9547 20.9474 57.1429 20.95 57.34V68.51H47.88C47.5631 58.454 49.4257 48.4484 53.34 39.18C53.4156 38.9957 53.5613 38.849 53.7451 38.7721C53.9289 38.6952 54.1357 38.6945 54.32 38.77C54.5043 38.8456 54.6511 38.9913 54.728 39.1751C54.8049 39.3589 54.8056 39.5657 54.73 39.75C48.23 55.28 49.55 67.17 49.38 69.25C49.38 69.449 49.301 69.6397 49.1604 69.7804C49.0197 69.921 48.8289 70 48.63 70Z" fill="black"/>
<path fill-rule="evenodd" clip-rule="evenodd" d="M45.9199 40.5801H25.0999C25.0014 40.5788 24.9042 40.5581 24.8137 40.5192C24.7232 40.4803 24.6412 40.4239 24.5725 40.3534C24.5038 40.2828 24.4497 40.1994 24.4132 40.1079C24.3767 40.0164 24.3586 39.9186 24.3599 39.8201V32.2001C24.3596 31.9982 24.4386 31.8043 24.5799 31.6601C24.647 31.5898 24.7277 31.534 24.8171 31.4962C24.9066 31.4583 25.0028 31.4392 25.0999 31.4401H38.4999C40.6925 31.4717 42.7835 32.3697 44.3162 33.938C45.8489 35.5063 46.6987 37.6173 46.6799 39.8101C46.6799 40.0099 46.6013 40.2017 46.4609 40.344C46.3205 40.4862 46.1298 40.5675 45.9299 40.5701L45.9199 40.5801ZM25.8399 39.0601H45.1399C44.9702 37.4074 44.1969 35.8754 42.968 34.7573C41.7392 33.6392 40.1412 33.0135 38.4799 33.0001H25.8399V39.0601Z" fill="black"/>
<path fill-rule="evenodd" clip-rule="evenodd" d="M45.9201 40.5801C45.8242 40.5814 45.729 40.5638 45.64 40.5283C45.5509 40.4929 45.4697 40.4402 45.401 40.3733C45.3322 40.3065 45.2774 40.2267 45.2395 40.1387C45.2016 40.0506 45.1814 39.9559 45.1801 39.8601V17.92C45.1697 17.0774 44.9932 16.2451 44.6607 15.4707C44.3283 14.6964 43.8464 13.9951 43.2427 13.4072C42.639 12.8193 41.9252 12.3561 41.1423 12.0443C40.3594 11.7325 39.5227 11.5782 38.6801 11.59H25.8401V32.59C25.8349 32.7846 25.7532 32.9692 25.6128 33.1039C25.4725 33.2387 25.2847 33.3128 25.0901 33.3101C24.9942 33.3114 24.899 33.2938 24.81 33.2583C24.7209 33.2229 24.6397 33.1702 24.571 33.1033C24.5022 33.0365 24.4474 32.9567 24.4095 32.8687C24.3716 32.7806 24.3514 32.6859 24.3501 32.59V10.87C24.3527 10.6755 24.4319 10.4899 24.5703 10.3532C24.7088 10.2166 24.8956 10.14 25.0901 10.14H38.6901C40.7819 10.1133 42.799 10.9174 44.2987 12.3759C45.7985 13.8344 46.6585 15.8283 46.6901 17.92V39.85C46.6888 39.949 46.6678 40.0466 46.6281 40.1372C46.5885 40.2279 46.5311 40.3096 46.4593 40.3777C46.3875 40.4457 46.3028 40.4987 46.2102 40.5335C46.1176 40.5682 46.0189 40.5841 45.9201 40.5801Z" fill="black"/>
<path fill-rule="evenodd" clip-rule="evenodd" d="M67.23 40.5801H46.4C46.2011 40.5801 46.0104 40.5011 45.8697 40.3604C45.729 40.2198 45.65 40.029 45.65 39.8301C45.6381 38.7427 45.8406 37.6637 46.2457 36.6545C46.6509 35.6454 47.2509 34.726 48.0114 33.9487C48.7719 33.1715 49.6781 32.5517 50.6782 32.1247C51.6783 31.6977 52.7527 31.4718 53.84 31.4601H67.23C67.4281 31.4653 67.6163 31.5477 67.7545 31.6896C67.8928 31.8316 67.9701 32.0219 67.97 32.2201V39.8201C67.9714 39.9186 67.9533 40.0164 67.9168 40.1079C67.8803 40.1994 67.8262 40.2828 67.7575 40.3534C67.6887 40.4239 67.6068 40.4803 67.5163 40.5192C67.4258 40.5581 67.3285 40.5788 67.23 40.5801ZM47.18 39.0601H66.48V33.0001H53.84C52.1787 33.0135 50.5807 33.6392 49.3519 34.7573C48.1231 35.8754 47.3498 37.4074 47.18 39.0601Z" fill="black"/>
<path fill-rule="evenodd" clip-rule="evenodd" d="M46.3999 40.5801C46.304 40.5827 46.2086 40.5665 46.119 40.5322C46.0294 40.498 45.9474 40.4464 45.8778 40.3805C45.8081 40.3145 45.7522 40.2355 45.7131 40.1479C45.674 40.0604 45.6525 39.9659 45.6499 39.8701V17.9201C45.6643 16.8839 45.8826 15.8607 46.2924 14.9089C46.7022 13.9572 47.2955 13.0954 48.0384 12.373C48.7813 11.6505 49.6592 11.0815 50.6221 10.6983C51.5849 10.3152 52.6138 10.1255 53.6499 10.1401H67.2299C67.4245 10.14 67.6112 10.2166 67.7497 10.3533C67.8882 10.4899 67.9673 10.6755 67.9699 10.8701V32.6101C67.9487 32.7928 67.8611 32.9613 67.7237 33.0837C67.5864 33.206 67.4089 33.2736 67.2249 33.2736C67.041 33.2736 66.8635 33.206 66.7261 33.0837C66.5887 32.9613 66.5011 32.7928 66.4799 32.6101V11.6101H53.6399C52.7973 11.5982 51.9606 11.7525 51.1777 12.0643C50.3948 12.3762 49.6811 12.8393 49.0773 13.4272C48.4736 14.0152 47.9917 14.7164 47.6593 15.4907C47.3268 16.2651 47.1504 17.0974 47.1399 17.9401V39.8601C47.1386 39.9559 47.1184 40.0506 47.0805 40.1387C47.0426 40.2267 46.9878 40.3065 46.9191 40.3733C46.8503 40.4402 46.7691 40.4929 46.6801 40.5283C46.591 40.5638 46.4958 40.5814 46.3999 40.5801ZM39.7799 26.3801H30.2199C29.7799 26.3801 29.4199 26.1501 29.4199 25.8701C29.4199 25.5901 29.7799 25.3701 30.2199 25.3701H39.7799C40.2199 25.3701 40.5799 25.5901 40.5799 25.8701C40.5799 26.1501 40.2199 26.3701 39.7799 26.3701V26.3801ZM35.7799 20.2901H30.1299C29.7299 20.2901 29.4199 20.0601 29.4199 19.7901C29.4199 19.5201 29.7399 19.2801 30.1299 19.2801H35.8099C36.2099 19.2801 36.5199 19.5001 36.5199 19.7801C36.5199 20.0601 36.1999 20.2901 35.8199 20.2901H35.7799Z" fill="black"/>
<path fill-rule="evenodd" clip-rule="evenodd" d="M61.09 26.38H51.52C51.08 26.38 50.72 26.15 50.72 25.87C50.72 25.59 51.08 25.37 51.52 25.37H61.09C61.53 25.37 61.89 25.59 61.89 25.87C61.89 26.15 61.53 26.37 61.09 26.37V26.38ZM60.16 20.29H54.48C54.08 20.29 53.77 20.06 53.77 19.79C53.77 19.52 54.09 19.28 54.47 19.28H60.16C60.56 19.28 60.87 19.5 60.87 19.78C60.87 20.06 60.55 20.29 60.16 20.29Z" fill="black"/>
</g>
<defs>
<clipPath id="clip0_9_722">
<rect width="68" height="70" fill="white"/>
</clipPath>
</defs>
</svg>
