<svg width="74" height="70" viewBox="0 0 74 70" fill="none" xmlns="http://www.w3.org/2000/svg">
<g clip-path="url(#clip0_9_736)">
<path fill-rule="evenodd" clip-rule="evenodd" d="M71.78 11.18L27.51 1.24005V2.82005C27.4901 2.96989 27.4115 3.10569 27.2915 3.19758C27.1715 3.28947 27.0199 3.32993 26.87 3.31005C26.7445 3.29696 26.6273 3.24114 26.5381 3.15192C26.4489 3.06271 26.3931 2.94554 26.38 2.82005V1.65005L1.58001 20.12L46.3 31.22L71.78 11.18ZM33.89 36.1101C33.9377 36.1883 33.962 36.2785 33.96 36.37V54C33.9697 54.0496 33.9697 54.1005 33.96 54.1501V54.23C33.9128 54.3495 33.8331 54.4534 33.73 54.53L22.55 62.94L45.82 68.71V43.51H45.69L43.46 42.9501C43.3169 42.9021 43.1987 42.7994 43.1312 42.6645C43.0637 42.5295 43.0525 42.3733 43.1 42.23C43.1454 42.0997 43.2358 41.9899 43.355 41.9202C43.4741 41.8506 43.6142 41.8257 43.75 41.85L45.83 42.3801V32.2701L1.17001 21.18V39.3801L12.17 30.88C12.2503 30.8231 12.3427 30.7855 12.44 30.77C12.5323 30.75 12.6277 30.75 12.72 30.77L33.44 35.7701C33.5682 35.8006 33.6836 35.8705 33.77 35.9701C33.8218 36.0052 33.8632 36.0535 33.89 36.1101ZM0.610008 58.66C0.290008 58.57 0.130008 58.3901 0.100008 58.2001C0.0463994 58.1226 0.0121104 58.0335 7.99075e-06 57.94C-0.00952549 57.8804 -0.00952549 57.8197 7.99168e-06 57.76V40.64C-0.0110704 40.5638 -0.0110704 40.4863 7.99075e-06 40.41L7.99168e-06 20.34C0.00225606 20.2223 0.0295265 20.1064 0.080008 20C0.137566 19.8616 0.230716 19.7409 0.350008 19.65L26.51 0.150048C26.6027 0.0789285 26.7097 0.0286999 26.8236 0.0028084C26.9375 -0.0230831 27.0557 -0.0240246 27.17 4.83952e-05L72.71 10.24C72.8379 10.2688 72.9567 10.3285 73.0561 10.4139C73.1555 10.4994 73.2324 10.6079 73.28 10.73C73.2962 10.8092 73.2962 10.8909 73.28 10.97V49.84C73.2635 49.9408 73.2266 50.0371 73.1716 50.1231C73.1166 50.209 73.0446 50.2829 72.96 50.34L46.86 69.84C46.7648 69.9098 46.6554 69.9576 46.5396 69.9801C46.4237 70.0026 46.3044 69.9991 46.19 69.97L0.640008 58.67L0.610008 58.66ZM1.17001 57.66H1.23001L20.83 62.5201V46.3101L13.15 44.4001V45.2201C13.1301 45.3699 13.0515 45.5057 12.9315 45.5976C12.8115 45.6895 12.6599 45.7299 12.51 45.71C12.3845 45.697 12.2673 45.6411 12.1781 45.5519C12.0889 45.4627 12.0331 45.3455 12.02 45.2201V44.12L1.17001 41.42V57.66ZM22 62L32.17 54.3H32.07C31.9269 54.2521 31.8087 54.1494 31.7412 54.0145C31.6737 53.8795 31.6625 53.7233 31.71 53.5801C31.7554 53.4497 31.8458 53.3399 31.965 53.2702C32.0841 53.2006 32.2242 53.1757 32.36 53.2001L32.86 53.3301V37.62L22 46.17V50.57H22.1L24.16 51.09C24.302 51.1421 24.4181 51.2475 24.4834 51.3839C24.5488 51.5202 24.5584 51.6768 24.51 51.82C24.465 51.9457 24.3772 52.0516 24.2621 52.1193C24.1469 52.1869 24.0117 52.2119 23.88 52.19L22 51.71V62ZM3.47001 54.85C3.40321 54.8857 3.34417 54.9342 3.29634 54.9929C3.24851 55.0516 3.21285 55.1192 3.19144 55.1918C3.17003 55.2644 3.1633 55.3406 3.17163 55.4158C3.17997 55.4911 3.20322 55.5639 3.24001 55.6301C3.31557 55.7613 3.43946 55.8578 3.58521 55.8989C3.73096 55.94 3.88701 55.9225 4.02001 55.85C4.06963 55.8258 4.11385 55.7918 4.15001 55.75L5.71001 54.59C5.84227 54.5181 5.94069 54.3967 5.98379 54.2525C6.02688 54.1082 6.01114 53.9528 5.94001 53.82C5.86612 53.6871 5.74297 53.5885 5.59707 53.5455C5.45117 53.5024 5.29421 53.5184 5.16001 53.59L5.03001 53.69L3.47001 54.85ZM7.37001 51.94C7.30321 51.9757 7.24417 52.0242 7.19634 52.0829C7.14851 52.1416 7.11285 52.2092 7.09144 52.2818C7.07003 52.3544 7.0633 52.4306 7.07163 52.5058C7.07997 52.5811 7.10322 52.6539 7.14001 52.7201C7.21557 52.8513 7.33946 52.9478 7.48521 52.9889C7.63096 53.03 7.78701 53.0125 7.92001 52.94C7.96963 52.9158 8.01385 52.8818 8.05001 52.84L9.61001 51.67C9.74489 51.6033 9.84791 51.486 9.89662 51.3436C9.94533 51.2013 9.93576 51.0454 9.87001 50.91C9.80132 50.7745 9.68216 50.6713 9.53816 50.6226C9.39416 50.574 9.23683 50.5839 9.10001 50.6501C9.04044 50.681 8.98638 50.7215 8.94001 50.7701L7.38001 51.94H7.37001ZM11.28 49C11.2132 49.0357 11.1542 49.0842 11.1063 49.1429C11.0585 49.2016 11.0229 49.2692 11.0014 49.3418C10.98 49.4144 10.9733 49.4906 10.9816 49.5658C10.99 49.6411 11.0132 49.7139 11.05 49.78C11.1256 49.9113 11.2495 50.0078 11.3952 50.0489C11.541 50.09 11.697 50.0725 11.83 50C11.8796 49.9758 11.9239 49.9418 11.96 49.9001L12.69 49.3601L13.58 49.5801C13.7284 49.6032 13.88 49.5667 14.0017 49.4787C14.1234 49.3907 14.2054 49.2582 14.23 49.1101C14.2519 48.9783 14.2268 48.8431 14.1592 48.728C14.0916 48.6128 13.9857 48.5251 13.86 48.48L13.06 48.28C13.0155 48.2194 12.9595 48.1682 12.8951 48.1293C12.8308 48.0904 12.7593 48.0647 12.685 48.0535C12.6106 48.0424 12.5348 48.0461 12.4619 48.0643C12.3889 48.0826 12.3203 48.1151 12.26 48.16C12.169 48.2292 12.0996 48.3228 12.06 48.43C11.79 48.63 11.53 48.83 11.28 49ZM16.93 49.26C16.8565 49.2455 16.7808 49.2456 16.7073 49.2604C16.6338 49.2751 16.5639 49.3042 16.5016 49.346C16.4394 49.3878 16.386 49.4415 16.3446 49.504C16.3031 49.5664 16.2744 49.6365 16.26 49.71C16.2357 49.8459 16.2605 49.986 16.3302 50.1051C16.3998 50.2242 16.5097 50.3146 16.64 50.3601L18.7 50.8801C18.8484 50.9032 19 50.8667 19.1217 50.7787C19.2434 50.6907 19.3254 50.5582 19.35 50.41C19.3683 50.2839 19.3437 50.1552 19.2803 50.0446C19.2169 49.9341 19.1182 49.8479 19 49.8L16.93 49.26ZM27.2 51.87C27.1265 51.8555 27.0508 51.8556 26.9773 51.8704C26.9038 51.8851 26.8339 51.9142 26.7716 51.956C26.7094 51.9978 26.656 52.0515 26.6146 52.114C26.5731 52.1764 26.5444 52.2465 26.53 52.32C26.5057 52.4559 26.5305 52.596 26.6002 52.7151C26.6698 52.8342 26.7797 52.9246 26.91 52.9701L28.97 53.4901C29.1184 53.5132 29.27 53.4767 29.3917 53.3887C29.5134 53.3007 29.5954 53.1682 29.62 53.0201C29.6419 52.8883 29.6168 52.7531 29.5492 52.638C29.4816 52.5228 29.3757 52.4351 29.25 52.39L27.2 51.87ZM32.25 36.64L13.12 32V33.87C13.1001 34.0199 13.0215 34.1557 12.9015 34.2476C12.7815 34.3395 12.6299 34.3799 12.48 34.3601C12.3545 34.347 12.2373 34.2911 12.1481 34.2019C12.0589 34.1127 12.0031 33.9955 11.99 33.87V32.46L1.73001 40.4001L12 43C11.9998 42.8802 12.0388 42.7635 12.111 42.6679C12.1832 42.5722 12.2847 42.5027 12.4 42.4701C12.4844 42.4454 12.5734 42.4405 12.6599 42.4559C12.7465 42.4713 12.8283 42.5066 12.899 42.5589C12.9697 42.6112 13.0274 42.6791 13.0674 42.7574C13.1075 42.8356 13.1289 42.9221 13.13 43.01V43.2901L21.27 45.2901L32.27 36.66L32.25 36.64ZM12 39.57C12.0199 39.7199 12.0985 39.8557 12.2185 39.9476C12.3386 40.0395 12.4902 40.0799 12.64 40.0601C12.7655 40.047 12.8827 39.9911 12.9719 39.9019C13.0611 39.8127 13.1169 39.6955 13.13 39.57V37.3C13.13 37.1489 13.07 37.0039 12.9631 36.897C12.8562 36.7901 12.7112 36.73 12.56 36.73C12.4088 36.73 12.2639 36.7901 12.157 36.897C12.0501 37.0039 11.99 37.1489 11.99 37.3V39.57H12ZM38.16 40.44C38.0865 40.4255 38.0108 40.4256 37.9373 40.4404C37.8638 40.4551 37.7939 40.4842 37.7316 40.526C37.6694 40.5678 37.616 40.6215 37.5746 40.684C37.5331 40.7464 37.5044 40.8165 37.49 40.89C37.4657 41.0259 37.4906 41.166 37.5602 41.2851C37.6298 41.4042 37.7397 41.4946 37.87 41.5401L40.09 42.1C40.1636 42.1146 40.2393 42.1145 40.3128 42.0997C40.3863 42.085 40.4561 42.0559 40.5184 42.0141C40.5806 41.9723 40.634 41.9186 40.6754 41.8561C40.7169 41.7937 40.7456 41.7236 40.76 41.6501C40.7844 41.5142 40.7595 41.3741 40.6898 41.255C40.6202 41.1359 40.5103 41.0455 40.38 41L38.16 40.44ZM49.29 43.2401C49.2158 43.2287 49.1401 43.2321 49.0672 43.2501C48.9943 43.2681 48.9257 43.3004 48.8653 43.345C48.8049 43.3896 48.7539 43.4457 48.7152 43.51C48.6766 43.5744 48.651 43.6458 48.64 43.7201C48.6186 43.8504 48.644 43.9842 48.7118 44.0976C48.7795 44.2111 48.8851 44.297 49.01 44.34L51.24 44.9001C51.3136 44.9146 51.3892 44.9145 51.4628 44.8997C51.5363 44.885 51.6061 44.8559 51.6684 44.8141C51.7306 44.7723 51.784 44.7186 51.8254 44.6561C51.8669 44.5937 51.8956 44.5236 51.91 44.4501C51.9344 44.3142 51.9095 44.1741 51.8398 44.055C51.7702 43.9359 51.6603 43.8455 51.53 43.8L49.29 43.2401ZM54.86 44.64C54.7865 44.6255 54.7108 44.6256 54.6373 44.6404C54.5638 44.6551 54.4939 44.6842 54.4316 44.726C54.3694 44.7678 54.316 44.8215 54.2746 44.884C54.2331 44.9464 54.2044 45.0165 54.19 45.09C54.1657 45.2259 54.1906 45.366 54.2602 45.4851C54.3298 45.6042 54.4397 45.6946 54.57 45.7401L56.8 46.3C56.9484 46.3232 57.1 46.2867 57.2217 46.1987C57.3434 46.1107 57.4254 45.9782 57.45 45.8301C57.4719 45.6983 57.4468 45.5631 57.3792 45.448C57.3116 45.3328 57.2057 45.2451 57.08 45.2001L54.86 44.64ZM60.43 46C60.3558 45.9887 60.2801 45.9921 60.2072 46.0101C60.1343 46.0281 60.0657 46.0604 60.0053 46.105C59.9449 46.1496 59.8939 46.2057 59.8552 46.27C59.8166 46.3344 59.791 46.4058 59.78 46.48C59.7586 46.6104 59.784 46.7442 59.8517 46.8576C59.9195 46.9711 60.0251 47.057 60.15 47.1L62.38 47.66C62.4536 47.6746 62.5292 47.6745 62.6028 47.6597C62.6763 47.645 62.7461 47.6159 62.8084 47.5741C62.8706 47.5323 62.924 47.4786 62.9655 47.4161C63.0069 47.3537 63.0356 47.2836 63.05 47.21C63.0744 47.0742 63.0495 46.9341 62.9798 46.815C62.9102 46.6959 62.8003 46.6055 62.67 46.5601L60.43 46ZM66 47.44C65.9265 47.4255 65.8508 47.4256 65.7773 47.4404C65.7038 47.4551 65.6339 47.4842 65.5716 47.526C65.5094 47.5678 65.456 47.6215 65.4146 47.684C65.3731 47.7464 65.3444 47.8165 65.33 47.89C65.3057 48.0259 65.3306 48.166 65.4002 48.2851C65.4698 48.4042 65.5797 48.4946 65.71 48.5401L68 49.1C68.0736 49.1146 68.1493 49.1145 68.2228 49.0997C68.2963 49.085 68.3661 49.0559 68.4284 49.0141C68.4906 48.9723 68.544 48.9186 68.5854 48.8561C68.6269 48.7937 68.6556 48.7236 68.67 48.6501C68.6944 48.5142 68.6695 48.3741 68.5998 48.255C68.5302 48.1359 68.4203 48.0455 68.29 48L66 47.44ZM46.94 68.35L72.2 49.4701V12.29L47 32.17V68.35H46.94ZM26.44 31.55C26.44 31.7012 26.5001 31.8462 26.607 31.9531C26.7139 32.06 26.8588 32.12 27.01 32.12C27.1612 32.12 27.3062 32.06 27.4131 31.9531C27.52 31.8462 27.58 31.7012 27.58 31.55V29.29C27.58 29.1389 27.52 28.9939 27.4131 28.887C27.3062 28.7801 27.1612 28.72 27.01 28.72C26.8588 28.72 26.7139 28.7801 26.607 28.887C26.5001 28.9939 26.44 29.1389 26.44 29.29V31.55ZM26.44 24.92C26.4599 25.0699 26.5385 25.2057 26.6585 25.2976C26.7786 25.3895 26.9302 25.4299 27.08 25.41C27.2055 25.397 27.3227 25.3411 27.4119 25.2519C27.5011 25.1627 27.5569 25.0455 27.57 24.92V22.66C27.57 22.5089 27.51 22.3639 27.4031 22.257C27.2962 22.1501 27.1512 22.09 27 22.09C26.8488 22.09 26.7039 22.1501 26.597 22.257C26.4901 22.3639 26.43 22.5089 26.43 22.66V24.92H26.44ZM26.39 19.62C26.4099 19.7699 26.4885 19.9057 26.6085 19.9976C26.7286 20.0895 26.8802 20.1299 27.03 20.11C27.1555 20.097 27.2727 20.0411 27.3619 19.9519C27.4511 19.8627 27.5069 19.7455 27.52 19.62V17.37C27.52 17.2189 27.46 17.0739 27.3531 16.967C27.2462 16.8601 27.1012 16.8 26.95 16.8C26.7988 16.8 26.6539 16.8601 26.547 16.967C26.4401 17.0739 26.38 17.2189 26.38 17.37V19.63L26.39 19.62ZM26.39 14.14C26.39 14.2912 26.4501 14.4362 26.557 14.5431C26.6639 14.65 26.8088 14.71 26.96 14.71C27.1112 14.71 27.2562 14.65 27.3631 14.5431C27.47 14.4362 27.53 14.2912 27.53 14.14V11.87C27.53 11.7189 27.47 11.5739 27.3631 11.467C27.2562 11.3601 27.1112 11.3 26.96 11.3C26.8088 11.3 26.6639 11.3601 26.557 11.467C26.4501 11.5739 26.39 11.7189 26.39 11.87V14.13V14.14ZM26.39 8.48005C26.4028 8.62957 26.474 8.76803 26.5882 8.86538C26.7024 8.96273 26.8504 9.01112 27 9.00005C27.1255 8.98697 27.2427 8.93114 27.3319 8.84192C27.4211 8.75271 27.4769 8.63554 27.49 8.51005V6.22005C27.49 6.06887 27.43 5.92389 27.3231 5.817C27.2162 5.7101 27.0712 5.65005 26.92 5.65005C26.7688 5.65005 26.6239 5.7101 26.517 5.817C26.4101 5.92389 26.35 6.06887 26.35 6.22005L26.39 8.48005Z" fill="black"/>
</g>
<defs>
<clipPath id="clip0_9_736">
<rect width="73.33" height="70" fill="white"/>
</clipPath>
</defs>
</svg>
